<svg xmlns="http://www.w3.org/2000/svg" enable-background="new 0 0 64 64" viewBox="0 0 64 64" id="food-delivery"><path fill="#f93838" d="M55.68,18.96H8.41c-0.6,0-1.09,0.49-1.09,1.09v43.32c0,0.6,0.49,1.09,1.09,1.09h47.26
		c0.6,0,1.09-0.49,1.09-1.09V20.05C56.77,19.45,56.28,18.96,55.68,18.96z M32.23,38.59c0,2.27-1.84,4.11-4.11,4.11h-2.39v12.12
		c0,0.89-0.73,1.62-1.62,1.62c-0.9,0-1.63-0.73-1.63-1.62V42.7h-2.67c-2.26,0-4.1-1.84-4.1-4.11v-9.16c0-0.89,0.73-1.62,1.62-1.62
		c0.9,0,1.63,0.73,1.63,1.62v9.16c0,0.48,0.38,0.87,0.86,0.87h2.67V28.67c0-0.9,0.73-1.63,1.63-1.63c0.89,0,1.62,0.73,1.62,1.63
		v10.79h2.39c0.48,0,0.87-0.39,0.87-0.87v-9.16c0-0.89,0.73-1.62,1.62-1.62c0.9,0,1.63,0.73,1.63,1.62V38.59z M43.65,45.69
		c-0.34,0.34-0.79,0.53-1.26,0.53l-3.49-0.04v9.71c0,0.98-0.8,1.78-1.78,1.78c-0.99,0-1.79-0.8-1.79-1.78V27.62
		c0-0.87,0.62-1.61,1.52-1.78c0.15-0.05,0.29-0.08,0.44-0.08c0.79,0,2.02,0.72,3.75,2.2c1.97,1.68,2.99,4.16,3.02,7.37l0.1,9.08
		C44.17,44.89,43.98,45.35,43.65,45.69z"></path><path fill="#2d2d2d" d="M20.29,10.94c0-4.68,3.81-8.49,8.49-8.49c0.13,0,0.27,0.01,0.4,0.02c-0.44,0.32-0.86,0.66-1.25,1.05
		c-2,1.98-3.1,4.62-3.1,7.43v6.39h1.98v-6.39c0-2.28,0.89-4.43,2.51-6.02c0.79-0.78,1.72-1.39,2.72-1.8c1,0.41,1.93,1.02,2.72,1.8
		c1.62,1.59,2.51,3.73,2.51,6.02v6.39h1.98v-6.39c0-2.81-1.1-5.45-3.1-7.43c-0.38-0.38-0.81-0.73-1.25-1.05
		c0.13-0.01,0.27-0.02,0.4-0.02c4.68,0,8.49,3.81,8.49,8.49v6.39h1.98v-6.39c0-5.78-4.69-10.47-10.47-10.47
		c-1.11,0-2.21,0.18-3.26,0.53c-1.06-0.35-2.15-0.53-3.26-0.53c-5.78,0-10.47,4.69-10.47,10.47v6.39h1.98V10.94z"></path></svg>